<svg xmlns="http://www.w3.org/2000/svg" width="1440" height="900" viewBox="0 0 1440 900" role="img">
  <title>CRP/CRO - exportação</title>
  <desc>Exportação e administração do relatório Dados fictícios, sem informação real de pacientes, profissionais ou instituição.</desc>
  <defs>
    <filter id="shadow" x="-15%" y="-15%" width="130%" height="130%"><feDropShadow dx="0" dy="18" stdDeviation="18" flood-color="#0f172a" flood-opacity=".13"/></filter>
    <style>.ui{font-family:Inter,Segoe UI,Arial,sans-serif;letter-spacing:0}</style>
  </defs>
  <rect width="1440" height="900" fill="#eef2f1"/>
  <rect x="34" y="28" width="1372" height="824" rx="26" fill="#ffffff" filter="url(#shadow)"/>
  <rect x="34" y="28" width="1372" height="48" rx="26" fill="#f8fafc"/>
  <circle cx="72" cy="52" r="7" fill="#ef4444"/><circle cx="96" cy="52" r="7" fill="#f59e0b"/><circle cx="120" cy="52" r="7" fill="#22c55e"/>
  <rect x="174" y="42" width="412" height="20" rx="10" fill="#e2e8f0"/>
  <text x="82" y="120" class="ui" font-size="28" font-weight="850" fill="#101b2c">Exportação e administração</text><text x="82" y="147" class="ui" font-size="13" font-weight="600" fill="#65758b">Impressão nativa, configuração e textos padrão</text><rect x="82" y="162" width="56" height="4" rx="3" fill="#0f766e" stroke="#0f766e"/><rect x="82" y="216" width="520" height="338" rx="14" fill="#ffffff" stroke="#dde6e4"/><text x="112" y="254" class="ui" font-size="20" font-weight="850" fill="#1a2b2e">Exportação PDF</text><rect x="112" y="292" width="210" height="30" rx="15" fill="#e4f3f1" stroke="#e4f3f1"/><text x="217" y="312" class="ui" font-size="12" font-weight="800" fill="#0f766e" text-anchor="middle">btn-pdf</text><rect x="112" y="338" width="210" height="30" rx="15" fill="#e4f3f1" stroke="#e4f3f1"/><text x="217" y="358" class="ui" font-size="12" font-weight="800" fill="#0f766e" text-anchor="middle">window.print()</text><rect x="112" y="384" width="210" height="30" rx="15" fill="#e4f3f1" stroke="#e4f3f1"/><text x="217" y="404" class="ui" font-size="12" font-weight="800" fill="#0f766e" text-anchor="middle">Salvar como PDF</text><rect x="112" y="430" width="210" height="30" rx="15" fill="#e4f3f1" stroke="#e4f3f1"/><text x="217" y="450" class="ui" font-size="12" font-weight="800" fill="#0f766e" text-anchor="middle">Margens: Nenhuma</text><rect x="642" y="216" width="622" height="338" rx="14" fill="#ffffff" stroke="#dde6e4"/><text x="672" y="254" class="ui" font-size="20" font-weight="850" fill="#1a2b2e">Administração</text><text x="672" y="284" class="ui" font-size="11" font-weight="800" fill="#66758a">metaInstitucional</text><rect x="672" y="292" width="244" height="42" rx="9" fill="#f7fafc" stroke="#d8e1ed"/><text x="686" y="322" class="ui" font-size="13" font-weight="600" fill="#26364a">config</text><text x="954" y="284" class="ui" font-size="11" font-weight="800" fill="#66758a">abaNome</text><rect x="954" y="292" width="244" height="42" rx="9" fill="#f7fafc" stroke="#d8e1ed"/><text x="968" y="322" class="ui" font-size="13" font-weight="600" fill="#26364a">config</text><text x="672" y="360" class="ui" font-size="11" font-weight="800" fill="#66758a">planilhaId</text><rect x="672" y="368" width="244" height="42" rx="9" fill="#f7fafc" stroke="#d8e1ed"/><text x="686" y="398" class="ui" font-size="13" font-weight="600" fill="#26364a">config</text><text x="954" y="360" class="ui" font-size="11" font-weight="800" fill="#66758a">logoUrl</text><rect x="954" y="368" width="244" height="42" rx="9" fill="#f7fafc" stroke="#d8e1ed"/><text x="968" y="398" class="ui" font-size="13" font-weight="600" fill="#26364a">config</text><text x="672" y="436" class="ui" font-size="11" font-weight="800" fill="#66758a">rodapeUrl</text><rect x="672" y="444" width="244" height="42" rx="9" fill="#f7fafc" stroke="#d8e1ed"/><text x="686" y="474" class="ui" font-size="13" font-weight="600" fill="#26364a">config</text><text x="954" y="436" class="ui" font-size="11" font-weight="800" fill="#66758a">indicadores</text><rect x="954" y="444" width="244" height="42" rx="9" fill="#f7fafc" stroke="#d8e1ed"/><text x="968" y="474" class="ui" font-size="13" font-weight="600" fill="#26364a">config</text><rect x="82" y="608" width="1182" height="188" rx="12" fill="#ffffff" stroke="#dce5ef"/><text x="100" y="638" class="ui" font-size="16" font-weight="800" fill="#142033">Fluxo de ações</text><rect x="98" y="652" width="1150" height="34" rx="8" fill="#f2f6fa" stroke="#f2f6fa"/><text x="110" y="674" class="ui" font-size="11" font-weight="800" fill="#617187">Ação</text><text x="392" y="674" class="ui" font-size="11" font-weight="800" fill="#617187">Função</text><text x="674" y="674" class="ui" font-size="11" font-weight="800" fill="#617187">Destino</text><text x="956" y="674" class="ui" font-size="11" font-weight="800" fill="#617187">Status</text><line x1="100" y1="688" x2="1246" y2="688" stroke="#e7edf4" stroke-width="1" stroke-linecap="round"/><text x="110" y="710" class="ui" font-size="12" font-weight="600" fill="#2b3b4f">Atualizar</text><text x="392" y="710" class="ui" font-size="12" font-weight="600" fill="#2b3b4f">iniciar(true)</text><text x="674" y="710" class="ui" font-size="12" font-weight="600" fill="#2b3b4f">base</text><rect x="956" y="690" width="112" height="26" rx="13" fill="#e6f7ef" stroke="#e6f7ef"/><text x="1012" y="708" class="ui" font-size="12" font-weight="800" fill="#13704c" text-anchor="middle">OK</text><line x1="100" y1="730" x2="1246" y2="730" stroke="#e7edf4" stroke-width="1" stroke-linecap="round"/><text x="110" y="752" class="ui" font-size="12" font-weight="600" fill="#2b3b4f">Textos padrão</text><text x="392" y="752" class="ui" font-size="12" font-weight="600" fill="#2b3b4f">renderTudo</text><text x="674" y="752" class="ui" font-size="12" font-weight="600" fill="#2b3b4f">documento</text><rect x="956" y="732" width="112" height="26" rx="13" fill="#e6f7ef" stroke="#e6f7ef"/><text x="1012" y="750" class="ui" font-size="12" font-weight="800" fill="#13704c" text-anchor="middle">OK</text><line x1="100" y1="772" x2="1246" y2="772" stroke="#e7edf4" stroke-width="1" stroke-linecap="round"/><text x="110" y="794" class="ui" font-size="12" font-weight="600" fill="#2b3b4f">Salvar admin</text><text x="392" y="794" class="ui" font-size="12" font-weight="600" fill="#2b3b4f">salvarConfigRelCRP</text><text x="674" y="794" class="ui" font-size="12" font-weight="600" fill="#2b3b4f">Apps Script</text><rect x="956" y="774" width="112" height="26" rx="13" fill="#e6f7ef" stroke="#e6f7ef"/><text x="1012" y="792" class="ui" font-size="12" font-weight="800" fill="#13704c" text-anchor="middle">OK</text>
  <text x="1076" y="832" class="ui" font-size="11" fill="#8a98ab">Tela demonstrativa baseada no código do repositório - dados fictícios</text>
</svg>