<svg xmlns="http://www.w3.org/2000/svg" width="1280" height="720" viewBox="0 0 1280 720" role="img" aria-labelledby="title desc"><title id="title">Hospital Reporting Dashboard guide image</title><desc id="desc">Demo guide image with fictitious reporting dashboard data.</desc><rect width="1280" height="720" fill="#f8fafc"/><rect x="58" y="44" width="1164" height="632" rx="24" fill="#fff" stroke="#dbe4f0"/><text x="96" y="100" font-family="Inter,Arial" font-size="31" font-weight="700" fill="#0f172a">Hospital Reporting Dashboard</text><text x="96" y="130" font-family="Inter,Arial" font-size="15" fill="#64748b">Imagem demonstrativa - relatorios e indicadores ficticios</text><rect x="96" y="172" width="285" height="118" rx="16" fill="#eff6ff" stroke="#bfdbfe"/><text x="126" y="216" font-family="Inter,Arial" font-size="16" fill="#1d4ed8">Relatorios gerados</text><text x="126" y="258" font-family="Inter,Arial" font-size="38" font-weight="700" fill="#1e3a8a">58</text><rect x="413" y="172" width="285" height="118" rx="16" fill="#ecfdf5" stroke="#a7f3d0"/><text x="443" y="216" font-family="Inter,Arial" font-size="16" fill="#047857">Conformidade</text><text x="443" y="258" font-family="Inter,Arial" font-size="38" font-weight="700" fill="#064e3b">93%</text><rect x="730" y="172" width="285" height="118" rx="16" fill="#fff7ed" stroke="#fed7aa"/><text x="760" y="216" font-family="Inter,Arial" font-size="16" fill="#c2410c">Revisoes pendentes</text><text x="760" y="258" font-family="Inter,Arial" font-size="38" font-weight="700" fill="#7c2d12">09</text><rect x="96" y="340" width="918" height="230" rx="18" fill="#fff" stroke="#dbe4f0"/><text x="130" y="388" font-family="Inter,Arial" font-size="20" font-weight="700" fill="#0f172a">Qualidade de registros</text><polyline points="142,520 245,470 348,492 451,436 554,402 657,380 760,346 892,372" fill="none" stroke="#2563eb" stroke-width="6" stroke-linecap="round" stroke-linejoin="round"/></svg>