<svg xmlns="http://www.w3.org/2000/svg" width="1440" height="900" viewBox="0 0 1440 900" role="img">
  <title>CRP/CRO - qualidade</title>
  <desc>Conferência de dados e classificações Dados fictícios, sem informação real de pacientes, profissionais ou instituição.</desc>
  <defs>
    <filter id="shadow" x="-15%" y="-15%" width="130%" height="130%"><feDropShadow dx="0" dy="18" stdDeviation="18" flood-color="#0f172a" flood-opacity=".13"/></filter>
    <style>.ui{font-family:Inter,Segoe UI,Arial,sans-serif;letter-spacing:0}</style>
  </defs>
  <rect width="1440" height="900" fill="#eef2f1"/>
  <rect x="34" y="28" width="1372" height="824" rx="26" fill="#ffffff" filter="url(#shadow)"/>
  <rect x="34" y="28" width="1372" height="48" rx="26" fill="#f8fafc"/>
  <circle cx="72" cy="52" r="7" fill="#ef4444"/><circle cx="96" cy="52" r="7" fill="#f59e0b"/><circle cx="120" cy="52" r="7" fill="#22c55e"/>
  <rect x="174" y="42" width="412" height="20" rx="10" fill="#e2e8f0"/>
  <text x="82" y="120" class="ui" font-size="28" font-weight="850" fill="#101b2c">Qualidade dos registros</text><text x="82" y="147" class="ui" font-size="13" font-weight="600" fill="#65758b">Filtros facetados, chips ativos, termos e classificação</text><rect x="82" y="162" width="56" height="4" rx="3" fill="#0f766e" stroke="#0f766e"/><rect x="82" y="220" width="690" height="188" rx="12" fill="#ffffff" stroke="#dce5ef"/><text x="100" y="250" class="ui" font-size="16" font-weight="800" fill="#142033">Central de conferência e saneamento</text><rect x="98" y="264" width="658" height="34" rx="8" fill="#f2f6fa" stroke="#f2f6fa"/><text x="110" y="286" class="ui" font-size="11" font-weight="800" fill="#617187">Campo</text><text x="269" y="286" class="ui" font-size="11" font-weight="800" fill="#617187">Problema</text><text x="428" y="286" class="ui" font-size="11" font-weight="800" fill="#617187">Sugestão</text><text x="587" y="286" class="ui" font-size="11" font-weight="800" fill="#617187">Severidade</text><line x1="100" y1="300" x2="754" y2="300" stroke="#e7edf4" stroke-width="1" stroke-linecap="round"/><text x="110" y="322" class="ui" font-size="12" font-weight="600" fill="#2b3b4f">competência</text><text x="269" y="322" class="ui" font-size="12" font-weight="600" fill="#2b3b4f">formato divergente</text><text x="428" y="322" class="ui" font-size="12" font-weight="600" fill="#2b3b4f">jun./26</text><rect x="587" y="302" width="112" height="26" rx="13" fill="#e6f7ef" stroke="#e6f7ef"/><text x="643" y="320" class="ui" font-size="12" font-weight="800" fill="#13704c" text-anchor="middle">MÉDIO</text><line x1="100" y1="342" x2="754" y2="342" stroke="#e7edf4" stroke-width="1" stroke-linecap="round"/><text x="110" y="364" class="ui" font-size="12" font-weight="600" fill="#2b3b4f">unidade</text><text x="269" y="364" class="ui" font-size="12" font-weight="600" fill="#2b3b4f">sigla vazia</text><text x="428" y="364" class="ui" font-size="12" font-weight="600" fill="#2b3b4f">UTI</text><rect x="587" y="344" width="112" height="26" rx="13" fill="#fdecec" stroke="#fdecec"/><text x="643" y="362" class="ui" font-size="12" font-weight="800" fill="#b42318" text-anchor="middle">ALTO</text><line x1="100" y1="384" x2="754" y2="384" stroke="#e7edf4" stroke-width="1" stroke-linecap="round"/><text x="110" y="406" class="ui" font-size="12" font-weight="600" fill="#2b3b4f">indicador</text><text x="269" y="406" class="ui" font-size="12" font-weight="600" fill="#2b3b4f">termo fora padrão</text><text x="428" y="406" class="ui" font-size="12" font-weight="600" fill="#2b3b4f">Conforme</text><rect x="587" y="386" width="112" height="26" rx="13" fill="#e6f7ef" stroke="#e6f7ef"/><text x="643" y="404" class="ui" font-size="12" font-weight="800" fill="#13704c" text-anchor="middle">BAIXO</text><rect x="812" y="220" width="452" height="250" rx="14" fill="#ffffff" stroke="#dde6e4"/><text x="842" y="258" class="ui" font-size="18" font-weight="850" fill="#1a2b2e">Chips ativos</text><rect x="842" y="292" width="176" height="28" rx="14" fill="#e4f3f1" stroke="#e4f3f1"/><text x="930" y="311" class="ui" font-size="12" font-weight="800" fill="#0f766e" text-anchor="middle">CRP</text><rect x="1038" y="292" width="176" height="28" rx="14" fill="#e4f3f1" stroke="#e4f3f1"/><text x="1126" y="311" class="ui" font-size="12" font-weight="800" fill="#0f766e" text-anchor="middle">CRO</text><rect x="842" y="336" width="176" height="28" rx="14" fill="#e4f3f1" stroke="#e4f3f1"/><text x="930" y="355" class="ui" font-size="12" font-weight="800" fill="#0f766e" text-anchor="middle">Todos os dados da base</text><rect x="1038" y="336" width="176" height="28" rx="14" fill="#e4f3f1" stroke="#e4f3f1"/><text x="1126" y="355" class="ui" font-size="12" font-weight="800" fill="#0f766e" text-anchor="middle">metaInstitucional</text><rect x="842" y="380" width="176" height="28" rx="14" fill="#e4f3f1" stroke="#e4f3f1"/><text x="930" y="399" class="ui" font-size="12" font-weight="800" fill="#0f766e" text-anchor="middle">termosConforme</text><rect x="1038" y="380" width="176" height="28" rx="14" fill="#e4f3f1" stroke="#e4f3f1"/><text x="1126" y="399" class="ui" font-size="12" font-weight="800" fill="#0f766e" text-anchor="middle">termosNaoConforme</text><rect x="82" y="526" width="530" height="220" rx="12" fill="#ffffff" stroke="#dce5ef"/><text x="100" y="556" class="ui" font-size="15" font-weight="800" fill="#142033">Achados por tema</text><rect x="112" y="570" width="76" height="142" rx="5" fill="#0f766e" stroke="#0f766e" opacity="0.52"/><text x="150" y="732" class="ui" font-size="10" font-weight="700" fill="#738196" text-anchor="middle">Set</text><rect x="206" y="641" width="76" height="71" rx="5" fill="#0f766e" stroke="#0f766e" opacity="0.59"/><text x="244" y="732" class="ui" font-size="10" font-weight="700" fill="#738196" text-anchor="middle">Ind</text><rect x="300" y="682" width="76" height="30" rx="5" fill="#0f766e" stroke="#0f766e" opacity="0.66"/><text x="338" y="732" class="ui" font-size="10" font-weight="700" fill="#738196" text-anchor="middle">Doc</text><rect x="394" y="591" width="76" height="121" rx="5" fill="#0f766e" stroke="#0f766e" opacity="0.73"/><text x="432" y="732" class="ui" font-size="10" font-weight="700" fill="#738196" text-anchor="middle">Meta</text><rect x="488" y="662" width="76" height="50" rx="5" fill="#0f766e" stroke="#0f766e" opacity="0.8"/><text x="526" y="732" class="ui" font-size="10" font-weight="700" fill="#738196" text-anchor="middle">Texto</text><line x1="106" y1="712" x2="588" y2="712" stroke="#d6dfeb" stroke-width="1" stroke-linecap="round"/><rect x="650" y="526" width="614" height="220" rx="12" fill="#ffffff" stroke="#dce5ef"/><text x="668" y="556" class="ui" font-size="15" font-weight="800" fill="#142033">Revisões manuais</text><line x1="672" y1="712" x2="1242" y2="712" stroke="#d6dfeb" stroke-width="1" stroke-linecap="round"/><polyline points="680,712 790,666 901,689 1012,574 1123,643 1234,689" fill="none" stroke="#b45709" stroke-width="5" stroke-linecap="round" stroke-linejoin="round"/><circle cx="1012" cy="574" r="6" fill="#b45709" stroke="none" stroke-width="1"/><circle cx="1123" cy="643" r="6" fill="#b45709" stroke="none" stroke-width="1"/><circle cx="1234" cy="689" r="6" fill="#b45709" stroke="none" stroke-width="1"/>
  <text x="1076" y="832" class="ui" font-size="11" fill="#8a98ab">Tela demonstrativa baseada no código do repositório - dados fictícios</text>
</svg>