<svg xmlns="http://www.w3.org/2000/svg" width="1440" height="900" viewBox="0 0 1440 900" role="img">
  <title>CRP/CRO - dashboard</title>
  <desc>Dashboard de relatório hospitalar Dados fictícios, sem informação real de pacientes, profissionais ou instituição.</desc>
  <defs>
    <filter id="shadow" x="-15%" y="-15%" width="130%" height="130%"><feDropShadow dx="0" dy="18" stdDeviation="18" flood-color="#0f172a" flood-opacity=".13"/></filter>
    <style>.ui{font-family:Inter,Segoe UI,Arial,sans-serif;letter-spacing:0}</style>
  </defs>
  <rect width="1440" height="900" fill="#eef2f1"/>
  <rect x="34" y="28" width="1372" height="824" rx="26" fill="#ffffff" filter="url(#shadow)"/>
  <rect x="34" y="28" width="1372" height="48" rx="26" fill="#f8fafc"/>
  <circle cx="72" cy="52" r="7" fill="#ef4444"/><circle cx="96" cy="52" r="7" fill="#f59e0b"/><circle cx="120" cy="52" r="7" fill="#22c55e"/>
  <rect x="174" y="42" width="412" height="20" rx="10" fill="#e2e8f0"/>
  <rect x="60" y="102" width="250" height="700" rx="18" fill="#f8fbff" stroke="#dce5ef"/><circle cx="92" cy="136" r="18" fill="#0f766e" stroke="none" stroke-width="1"/><text x="120" y="140" class="ui" font-size="19" font-weight="850" fill="#142033">CRP/CRO</text><text x="84" y="174" class="ui" font-size="11" font-weight="800" fill="#66758a">menu do sistema</text><rect x="76" y="182" width="218" height="40" rx="10" fill="#e8f1ff" stroke="#cbdff8"/><text x="94" y="207" class="ui" font-size="13" font-weight="800" fill="#0f766e">Recorte</text><text x="94" y="255" class="ui" font-size="13" font-weight="650" fill="#66758a">Resumo</text><text x="94" y="303" class="ui" font-size="13" font-weight="650" fill="#66758a">Documento</text><text x="94" y="351" class="ui" font-size="13" font-weight="650" fill="#66758a">Admin</text><text x="346" y="120" class="ui" font-size="28" font-weight="850" fill="#101b2c">Relatório Analítico da CRP</text><text x="346" y="147" class="ui" font-size="13" font-weight="600" fill="#65758b">Recorte e opções, resumo lateral e documento A4</text><rect x="346" y="162" width="56" height="4" rx="3" fill="#0f766e" stroke="#0f766e"/><rect x="346" y="206" width="300" height="410" rx="12" fill="#ffffff" stroke="#dde6e4"/><text x="370" y="244" class="ui" font-size="17" font-weight="850" fill="#1a2b2e">Recorte e opções</text><rect x="370" y="276" width="230" height="30" rx="15" fill="#e4f3f1" stroke="#e4f3f1"/><text x="485" y="296" class="ui" font-size="12" font-weight="800" fill="#0f766e" text-anchor="middle">Comissão: CRP</text><rect x="370" y="322" width="230" height="30" rx="15" fill="#e4f3f1" stroke="#e4f3f1"/><text x="485" y="342" class="ui" font-size="12" font-weight="800" fill="#0f766e" text-anchor="middle">Unidade: Todos</text><rect x="370" y="368" width="230" height="30" rx="15" fill="#e4f3f1" stroke="#e4f3f1"/><text x="485" y="388" class="ui" font-size="12" font-weight="800" fill="#0f766e" text-anchor="middle">Período: Jun/2026</text><rect x="370" y="414" width="230" height="30" rx="15" fill="#e4f3f1" stroke="#e4f3f1"/><text x="485" y="434" class="ui" font-size="12" font-weight="800" fill="#0f766e" text-anchor="middle">Incluir anexo B</text><rect x="370" y="484" width="226" height="92" rx="14" fill="#e4f3f1" stroke="#e4f3f1"/><text x="388" y="514" class="ui" font-size="12" font-weight="800" fill="#0f766e">Resumo</text><text x="388" y="552" class="ui" font-size="30" font-weight="850" fill="#0f766e">93%</text><text x="578" y="552" class="ui" font-size="11" font-weight="700" fill="#0f766e" text-anchor="end">meta</text><rect x="684" y="206" width="554" height="596" rx="4" fill="#ffffff" stroke="#dde6e4"/><text x="724" y="252" class="ui" font-size="24" font-weight="850" fill="#1a2b2e">Documento A4</text><rect x="724" y="296" width="150" height="82" rx="14" fill="#e4f3f1" stroke="#e4f3f1"/><text x="742" y="326" class="ui" font-size="12" font-weight="800" fill="#0f766e">Conformidade</text><text x="742" y="364" class="ui" font-size="30" font-weight="850" fill="#0f766e">93%</text><text x="856" y="364" class="ui" font-size="11" font-weight="700" fill="#0f766e" text-anchor="end">meta</text><rect x="892" y="296" width="150" height="82" rx="14" fill="#f8fafb" stroke="#f8fafb"/><text x="910" y="326" class="ui" font-size="12" font-weight="800" fill="#36515b">Registros</text><text x="910" y="364" class="ui" font-size="30" font-weight="850" fill="#36515b">512</text><text x="1024" y="364" class="ui" font-size="11" font-weight="700" fill="#36515b" text-anchor="end">base</text><rect x="1060" y="296" width="150" height="82" rx="14" fill="#fff5e5" stroke="#fff5e5"/><text x="1078" y="326" class="ui" font-size="12" font-weight="800" fill="#b45709">Alertas</text><text x="1078" y="364" class="ui" font-size="30" font-weight="850" fill="#b45709">04</text><text x="1192" y="364" class="ui" font-size="11" font-weight="700" fill="#b45709" text-anchor="end">estrutura</text><rect x="724" y="420" width="482" height="160" rx="12" fill="#ffffff" stroke="#dce5ef"/><text x="742" y="450" class="ui" font-size="15" font-weight="800" fill="#142033">Conformidade × meta</text><line x1="746" y1="546" x2="1184" y2="546" stroke="#d6dfeb" stroke-width="1" stroke-linecap="round"/><polyline points="754,546 859,534 965,522 1070,480 1176,468" fill="none" stroke="#0f766e" stroke-width="5" stroke-linecap="round" stroke-linejoin="round"/><circle cx="965" cy="522" r="6" fill="#0f766e" stroke="none" stroke-width="1"/><circle cx="1070" cy="480" r="6" fill="#0f766e" stroke="none" stroke-width="1"/><circle cx="1176" cy="468" r="6" fill="#0f766e" stroke="none" stroke-width="1"/><rect x="724" y="610" width="482" height="188" rx="12" fill="#ffffff" stroke="#dce5ef"/><text x="742" y="640" class="ui" font-size="16" font-weight="800" fill="#142033">Tabela do documento</text><rect x="740" y="654" width="450" height="34" rx="8" fill="#f2f6fa" stroke="#f2f6fa"/><text x="752" y="676" class="ui" font-size="11" font-weight="800" fill="#617187">Indicador</text><text x="859" y="676" class="ui" font-size="11" font-weight="800" fill="#617187">Valor</text><text x="966" y="676" class="ui" font-size="11" font-weight="800" fill="#617187">Meta</text><text x="1073" y="676" class="ui" font-size="11" font-weight="800" fill="#617187">Status</text><line x1="742" y1="690" x2="1188" y2="690" stroke="#e7edf4" stroke-width="1" stroke-linecap="round"/><text x="752" y="712" class="ui" font-size="12" font-weight="600" fill="#2b3b4f">Prontuário</text><text x="859" y="712" class="ui" font-size="12" font-weight="600" fill="#2b3b4f">94%</text><text x="966" y="712" class="ui" font-size="12" font-weight="600" fill="#2b3b4f">90%</text><rect x="1073" y="692" width="91" height="26" rx="13" fill="#e6f7ef" stroke="#e6f7ef"/><text x="1118" y="710" class="ui" font-size="12" font-weight="800" fill="#13704c" text-anchor="middle">OK</text><line x1="742" y1="732" x2="1188" y2="732" stroke="#e7edf4" stroke-width="1" stroke-linecap="round"/><text x="752" y="754" class="ui" font-size="12" font-weight="600" fill="#2b3b4f">Evolução</text><text x="859" y="754" class="ui" font-size="12" font-weight="600" fill="#2b3b4f">87%</text><text x="966" y="754" class="ui" font-size="12" font-weight="600" fill="#2b3b4f">90%</text><rect x="1073" y="734" width="91" height="26" rx="13" fill="#fff6df" stroke="#fff6df"/><text x="1118" y="752" class="ui" font-size="12" font-weight="800" fill="#9a6208" text-anchor="middle">Revisar</text><line x1="742" y1="774" x2="1188" y2="774" stroke="#e7edf4" stroke-width="1" stroke-linecap="round"/><text x="752" y="796" class="ui" font-size="12" font-weight="600" fill="#2b3b4f">Assinatura</text><text x="859" y="796" class="ui" font-size="12" font-weight="600" fill="#2b3b4f">96%</text><text x="966" y="796" class="ui" font-size="12" font-weight="600" fill="#2b3b4f">90%</text><rect x="1073" y="776" width="91" height="26" rx="13" fill="#e6f7ef" stroke="#e6f7ef"/><text x="1118" y="794" class="ui" font-size="12" font-weight="800" fill="#13704c" text-anchor="middle">OK</text>
  <text x="1076" y="832" class="ui" font-size="11" fill="#8a98ab">Tela demonstrativa baseada no código do repositório - dados fictícios</text>
</svg>